<?xml version="1.0" standalone="no"?><svg xmlns="http://www.w3.org/2000/svg" viewBox="0 0 1440 320"><path fill="#DFE8FF" fill-opacity="1" d="M0,192L40,181.3C80,171,160,149,240,122.7C320,96,400,64,480,53.3C560,43,640,53,720,85.3C800,117,880,171,960,186.7C1040,203,1120,181,1200,165.3C1280,149,1360,139,1400,133.3L1440,128L1440,320L1400,320C1360,320,1280,320,1200,320C1120,320,1040,320,960,320C880,320,800,320,720,320C640,320,560,320,480,320C400,320,320,320,240,320C160,320,80,320,40,320L0,320Z"></path></svg>